#!OML:ASF E:\pregnant2\Project 1\Capture day 1\Session 1\pregnant2.ASF
:FULLY-SPECIFIED
:DEGREES
1357
root 6.05053 16.9231 24.7805 25.5678 -5.10102 -0.161752
lowerback -11.7298 -0.860336 -2.09609
upperback -14.2116 -1.01835 1.38767
thorax -8.57357 -0.255329 2.61411
lowerneck -13.0894 -1.80008 -5.56444
upperneck 46.4581 -0.259951 -1.87474
head 20.7871 -1.44633 -0.0423709
rclavicle -1.9133e-015 1.82882e-014
rhumerus -34.6262 17.7027 -91.0496
rradius 41.1423
rwrist 6.83159
rhand -15.5436 -13.4075
rfingers 7.12502
rthumb 10.6404 -43.1181
lclavicle -1.9133e-015 1.82882e-014
lhumerus -57.6812 12.1606 73.4201
lradius 22.6271
lwrist -11.0033
lhand -10.9368 25.9407
lfingers 7.12502
lthumb 15.0813 55.3714
rfemur -33.2179 12.3889 20.609
rtibia 32.2833
rfoot -20.5859 -15.7066
rtoes -1.81496
lfemur -52.9934 -13.3424 -6.98174
ltibia 21.5339
lfoot -2.85577 24.5664
ltoes -9.79956
1358
root 6.06938 16.9351 24.9201 25.4719 -5.27669 -0.214556
lowerback -11.7509 -0.787781 -1.99784
upperback -14.2309 -0.929538 1.35067
thorax -8.59049 -0.222122 2.52346
lowerneck -13.0136 -1.77536 -5.50916
upperneck 46.5039 -0.224872 -1.91863
head 20.7959 -1.43013 -0.0685347
rclavicle -6.21202e-016 -5.76476e-015
rhumerus -34.4607 18.0182 -91.2463
rradius 41.945
rwrist 6.72215
rhand -15.4868 -13.7524
rfingers 7.12502
rthumb 10.6952 -43.4602
lclavicle -6.21202e-016 -5.76476e-015
lhumerus -58.149 12.1773 72.9478
lradius 22.3018
lwrist -13.2743
lhand -10.3536 25.668
lfingers 7.12502
lthumb 15.6431 55.0555
rfemur -32.1909 12.4648 20.6248
rtibia 31.4635
rfoot -20.4865 -15.7074
rtoes -2.3085
lfemur -52.538 -14.542 -5.46416
ltibia 19.1631
lfoot -1.94312 26.1303
ltoes -9.66403
1359
root 6.0899 16.9402 25.0617 25.3909 -5.37975 -0.266098
lowerback -11.7908 -0.781307 -1.91439
upperback -14.2589 -0.925339 1.37064
thorax -8.60117 -0.226967 2.4984
lowerneck -12.9932 -1.72108 -5.41132
upperneck 46.6108 -0.117803 -2.03635
head 20.8664 -1.3906 -0.128842
rclavicle -4.72114e-016 7.15625e-015
rhumerus -34.2963 18.4083 -91.4306
rradius 42.6845
rwrist 6.68614
rhand -15.4976 -13.7835
rfingers 7.12502
rthumb 10.6848 -43.4918
lclavicle -4.72114e-016 7.15625e-015
lhumerus -58.625 12.3932 72.3336
lradius 21.9407
lwrist -15.4612
lhand -9.66598 25.2701
lfingers 7.12502
lthumb 16.3053 54.6046
rfemur -31.2451 12.5195 20.6467
rtibia 30.8345
rfoot -20.5792 -15.6863
rtoes -2.51027
lfemur -52.1697 -15.5119 -4.27884
ltibia 17.2404
lfoot -1.54803 27.4124
ltoes -9.13664
1360
root 6.11085 16.937 25.2039 25.2791 -5.49594 -0.332556
lowerback -11.7596 -0.7508 -1.82678
upperback -14.3066 -0.891188 1.37416
thorax -8.67624 -0.216871 2.4561
lowerneck -12.9297 -1.68645 -5.35792
upperneck 46.7341 -0.0619801 -2.08645
head 20.9375 -1.36991 -0.156486
rclavicle -1.07592e-014 8.74653e-015
rhumerus -34.2202 18.7852 -91.6239
rradius 43.3811
rwrist 6.60551
rhand -15.3918 -13.8194
rfingers 7.12502
rthumb 10.7868 -43.5224
lclavicle -1.07592e-014 8.74653e-015
lhumerus -59.1427 12.5336 71.7486
lradius 21.6815
lwrist -17.2727
lhand -9.04357 24.866
lfingers 7.12502
lthumb 16.9045 54.1503
rfemur -30.3571 12.5329 20.7033
rtibia 30.3878
rfoot -20.6912 -15.6452
rtoes -3.0287
lfemur -51.7666 -16.2981 -3.38578
ltibia 15.7099
lfoot -1.63163 28.4913
ltoes -8.86521
1361
root 6.13337 16.928 25.3476 25.2181 -5.57667 -0.335347
lowerback -11.8024 -0.750058 -1.78506
upperback -14.3492 -0.893851 1.3634
thorax -8.70222 -0.222677 2.42139
lowerneck -12.9222 -1.66482 -5.30075
upperneck 46.8704 -0.0291722 -2.127
head 21.037 -1.35674 -0.185842
rclavicle -1.73937e-016 8.94531e-015
rhumerus -34.1599 19.1539 -91.8271
rradius 44.113
rwrist 6.4943
rhand -15.5824 -13.7268
rfingers 7.12502
rthumb 10.603 -43.4393
lclavicle -1.73937e-016 8.94531e-015
lhumerus -59.5528 12.6667 71.1943
lradius 21.3854
lwrist -18.6571
lhand -8.37004 24.5302
lfingers 7.12502
lthumb 17.5528 53.7578
rfemur -29.6059 12.475 20.6929
rtibia 30.134
rfoot -20.9425 -15.5803
rtoes -3.41965
lfemur -51.4624 -16.9579 -2.82271
ltibia 14.6375
lfoot -1.78606 29.3249
ltoes -9.54804
1362
root 6.15592 16.9112 25.4937 25.1141 -5.64378 -0.349316
lowerback -11.8512 -0.743945 -1.75235
upperback -14.3762 -0.888164 1.35609
thorax -8.70704 -0.22349 2.39537
lowerneck -12.8699 -1.65414 -5.23834
upperneck 47.0133 -0.019171 -2.16911
head 21.1285 -1.35128 -0.221411
rclavicle -2.37299e-014 1.35174e-014
rhumerus -34.1498 19.3973 -91.971
rradius 44.8705
rwrist 6.45826
rhand -15.4922 -13.7399
rfingers 7.12502
rthumb 10.69 -43.448
lclavicle -2.37299e-014 1.35174e-014
lhumerus -59.8826 12.708 70.8086
lradius 21.1492
lwrist -19.3464
lhand -8.03037 24.3612
lfingers 7.12502
lthumb 17.8796 53.5593
rfemur -28.8895 12.3911 20.7123
rtibia 30.0797
rfoot -21.2876 -15.4985
rtoes -3.90292
lfemur -51.065 -17.2011 -2.8426
ltibia 14.0674
lfoot -2.12618 29.3368
ltoes -9.76347
1363
root 6.17964 16.8895 25.6405 25.0531 -5.67671 -0.286073
lowerback -11.9255 -0.755738 -1.76411
upperback -14.4158 -0.905532 1.311
thorax -8.71125 -0.233846 2.35256
lowerneck -12.8541 -1.64375 -5.19258
upperneck 47.142 -0.0341348 -2.14047
head 21.221 -1.34866 -0.22189
rclavicle -1.37658e-014 -1.59028e-015
rhumerus -34.1776 19.6014 -92.1359
rradius 45.6485
rwrist 6.41069
rhand -15.477 -13.7515
rfingers 7.12502
rthumb 10.7047 -43.4588
lclavicle -1.37658e-014 -1.59028e-015
lhumerus -60.0826 12.6335 70.6139
lradius 20.9706
lwrist -19.1247
lhand -7.79347 24.4811
lfingers 7.12502
lthumb 18.1075 53.6583
rfemur -28.306 12.2087 20.6628
rtibia 30.2105
rfoot -21.6958 -15.3883
rtoes -4.50357
lfemur -50.7228 -16.9945 -3.53735
ltibia 14.0359
lfoot -2.2454 28.5397
ltoes -11.095
1364
root 6.20416 16.8617 25.7901 25.0043 -5.71006 -0.22077
lowerback -12.0309 -0.779959 -1.82192
upperback -14.463 -0.934785 1.2966
thorax -8.70607 -0.243954 2.36751
lowerneck -12.8523 -1.65256 -5.15441
upperneck 47.2784 -0.0633875 -2.14281
head 21.3258 -1.35727 -0.24084
rclavicle 1.22998e-014 -1.59028e-015
rhumerus -34.2789 19.757 -92.2547
rradius 46.4118
rwrist 6.38053
rhand -15.5077 -13.6352
rfingers 7.12502
rthumb 10.675 -43.344
lclavicle 1.22998e-014 -1.59028e-015
lhumerus -60.2649 12.4542 70.6555
lradius 20.9415
lwrist -18.2573
lhand -7.80385 24.6899
lfingers 7.12502
lthumb 18.0976 53.868
rfemur -27.8146 12.0026 20.6022
rtibia 30.4978
rfoot -22.1304 -15.2622
rtoes -5.16487
lfemur -50.3438 -16.3187 -4.7892
ltibia 14.4183
lfoot -1.57371 26.884
ltoes -13.8697
1365
root 6.22996 16.8325 25.9401 24.9688 -5.7826 -0.142568
lowerback -12.139 -0.782373 -1.88521
upperback -14.5233 -0.935598 1.26309
thorax -8.71653 -0.240054 2.36646
lowerneck -12.9043 -1.69155 -5.11059
upperneck 47.4209 -0.139999 -2.14668
head 21.4544 -1.38328 -0.272506
rclavicle 1.47598e-014 4.96962e-015
rhumerus -34.4153 20.1007 -92.4356
rradius 47.1303
rwrist 6.12523
rhand -15.58 -13.4608
rfingers 7.12502
rthumb 10.6053 -43.1732
lclavicle 1.47598e-014 4.96962e-015
lhumerus -60.3983 12.3198 70.6466
lradius 20.8501
lwrist -17.2653
lhand -7.84909 24.8953
lfingers 7.12502
lthumb 18.054 54.0774
rfemur -27.3739 11.8108 20.5029
rtibia 30.8533
rfoot -22.5545 -15.1473
rtoes -5.95773
lfemur -49.9049 -15.2596 -6.46422
ltibia 15.1246
lfoot -1.20082 24.7503
ltoes -15.236
1366
root 6.25836 16.806 26.0907 24.9852 -5.76169 0.0175029
lowerback -12.3215 -0.84347 -2.00026
upperback -14.5745 -1.00948 1.23799
thorax -8.67073 -0.268372 2.39859
lowerneck -12.9685 -1.71388 -5.11241
upperneck 47.5161 -0.191389 -2.11165
head 21.5508 -1.4019 -0.268671
rclavicle -2.5345e-015 1.70955e-014
rhumerus -34.6027 20.184 -92.5155
rradius 47.9401
rwrist 6.16717
rhand -15.5906 -13.234
rfingers 7.12502
rthumb 10.5951 -42.9469
lclavicle -2.5345e-015 1.70955e-014
lhumerus -60.4664 12.2223 70.7164
lradius 20.8193
lwrist -16.1042
lhand -7.97581 25.1844
lfingers 7.12502
lthumb 17.9321 54.3777
rfemur -26.9755 11.5408 20.3266
rtibia 31.1976
rfoot -22.8857 -15.0459
rtoes -6.81512
lfemur -49.8064 -14.4248 -7.89552
ltibia 16.0386
lfoot 0.074051 22.2505
ltoes -16.5621
1367
root 6.28891 16.7908 26.2347 24.9722 -5.75434 0.170822
lowerback -12.3615 -0.902807 -2.12886
upperback -14.6651 -1.08207 1.2311
thorax -8.74984 -0.291273 2.46074
lowerneck -12.9275 -1.72305 -5.10785
upperneck 47.5788 -0.229618 -2.08487
head 21.5873 -1.41444 -0.265142
rclavicle -1.23743e-014 1.49089e-014
rhumerus -34.861 20.1692 -92.574
rradius 48.6612
rwrist 6.25474
rhand -15.6213 -12.8315
rfingers 7.12502
rthumb 10.5655 -42.5459
lclavicle -1.23743e-014 1.49089e-014
lhumerus -60.5181 12.11 70.8428
lradius 20.7581
lwrist -14.933
lhand -8.0798 25.474
lfingers 7.12502
lthumb 17.8321 54.6765
rfemur -26.582 11.3507 20.1169
rtibia 31.5163
rfoot -23.045 -14.9821
rtoes -7.83851
lfemur -49.9203 -14.0671 -8.75855
ltibia 16.9522
lfoot 2.15103 20.5968
ltoes -15.6837
1368
root 6.31976 16.7861 26.3811 24.8932 -5.76527 0.305829
lowerback -12.3271 -0.937636 -2.23637
upperback -14.775 -1.12518 1.21928
thorax -8.89487 -0.300139 2.50889
lowerneck -12.8127 -1.76082 -5.11101
upperneck 47.6308 -0.301977 -2.09453
head 21.5925 -1.44593 -0.285539
rclavicle -3.72721e-015 -2.28602e-014
rhumerus -35.2883 20.3332 -92.7113
rradius 49.4194
rwrist 6.17804
rhand -15.5417 -12.7187
rfingers 7.12502
rthumb 10.6422 -42.4292
lclavicle -3.72721e-015 -2.28602e-014
lhumerus -60.5949 12.0367 70.8943
lradius 20.6884
lwrist -14.0623
lhand -8.08077 25.9251
lfingers 7.12502
lthumb 17.8311 55.1276
rfemur -26.11 11.2047 19.9213
rtibia 31.8455
rfoot -23.1358 -14.9154
rtoes -8.68842
lfemur -49.9611 -14.1491 -9.16719
ltibia 17.6901
lfoot 3.72105 20.0618
ltoes -14.9516
1369
root 6.34717 16.7861 26.5262 24.8528 -5.81781 0.621243
lowerback -12.3698 -1.02163 -2.60468
upperback -14.8455 -1.21822 1.1798
thorax -8.94702 -0.311853 2.6686
lowerneck -12.4819 -1.66076 -5.04826
upperneck 47.6625 -0.171041 -2.12597
head 21.5062 -1.3885 -0.282993
rclavicle -2.29596e-014 -3.97569e-016
rhumerus -35.5762 20.2755 -92.7778
rradius 49.9851
rwrist 6.3588
rhand -15.4397 -12.4385
rfingers 7.12502
rthumb 10.7406 -42.1439
lclavicle -2.29596e-014 -3.97569e-016
lhumerus -60.5139 12.1538 70.7913
lradius 20.5
lwrist -13.6461
lhand -8.14276 26.2666
lfingers 7.12502
lthumb 17.7715 55.4745
rfemur -25.7629 11.0648 19.5214
rtibia 32.2813
rfoot -23.2156 -14.9071
rtoes -9.46887
lfemur -50.0143 -14.4461 -9.57265
ltibia 18.3328
lfoot 4.65224 19.9386
ltoes -16.1561
1370
root 6.37211 16.7841 26.6682 24.8265 -5.81042 1.06439
lowerback -12.3376 -1.15795 -3.14755
upperback -14.9649 -1.37385 1.13805
thorax -9.09317 -0.334741 2.92291
lowerneck -12.4011 -1.67699 -5.09556
upperneck 47.7817 -0.20578 -2.09534
head 21.5761 -1.4098 -0.268521
rclavicle 9.93923e-016 -2.42517e-014
rhumerus -36.0088 20.0967 -92.8269
rradius 50.5797
rwrist 6.57145
rhand -15.0403 -12.4294
rfingers 7.12502
rthumb 11.1259 -42.1144
lclavicle 9.93923e-016 -2.42517e-014
lhumerus -60.4543 12.3101 70.6395
lradius 20.2745
lwrist -13.6513
lhand -8.20929 26.3357
lfingers 7.12502
lthumb 17.7074 55.5494
rfemur -25.552 10.9837 18.9997
rtibia 32.9214
rfoot -23.3269 -15.0373
rtoes -10.082
lfemur -50.0267 -14.7992 -10.0908
ltibia 18.9022
lfoot 5.3651 19.6087
ltoes -17.1264
